<svg width="136" height="137" viewBox="0 0 136 137" fill="none" xmlns="http://www.w3.org/2000/svg">
<rect width="136" height="137" fill="#E5E5E5"/>
<path d="M68 136.5C105.283 136.5 135.5 106.052 135.5 68.5C135.5 30.9481 105.283 0.5 68 0.5C30.7173 0.5 0.5 30.9481 0.5 68.5C0.5 106.052 30.7173 136.5 68 136.5Z" fill="#FF9E00" stroke="#C5802A"/>
<path d="M68.5 121.5C99.4149 121.5 124.5 97.1123 124.5 67C124.5 36.8877 99.4149 12.5 68.5 12.5C37.5851 12.5 12.5 36.8877 12.5 67C12.5 97.1123 37.5851 121.5 68.5 121.5Z" fill="#FFE36E" stroke="#C5802A"/>
<path d="M66.8799 21.2H71.2959V32.432C76.4159 32.432 80.7679 33.552 84.3519 35.792C87.9999 38.032 89.8239 40.944 89.8239 44.528C89.8239 46.448 89.1519 47.984 87.8079 49.136C86.4639 50.224 85.1199 50.768 83.7759 50.768C82.4319 50.768 81.2159 50.608 80.1279 50.288C80.3839 48.944 80.5119 47.184 80.5119 45.008C80.5119 42.832 79.7439 40.72 78.2079 38.672C76.7359 36.56 74.4319 35.312 71.2959 34.928V61.328C73.0239 61.84 75.2319 62.704 77.9199 63.92C80.6719 65.136 82.4319 66.032 83.1999 66.608C84.0319 67.184 85.0239 67.984 86.1759 69.008C87.3279 70.032 88.1919 71.056 88.7679 72.08C90.1759 74.704 90.8799 77.552 90.8799 80.624C90.8799 85.488 89.0879 89.584 85.5039 92.912C81.9199 96.176 77.1839 98.16 71.2959 98.864V110.48H66.8799V99.152C58.6879 99.024 52.3839 97.424 47.9679 94.352C45.4079 92.56 44.1279 90.416 44.1279 87.92C44.1279 84.784 46.3999 82.64 50.9439 81.488C51.9039 86.736 53.8559 90.512 56.7999 92.816C59.7439 95.12 63.1039 96.4 66.8799 96.656V69.872C58.3679 66.48 53.0239 63.504 50.8479 60.944C48.2879 58.128 47.0079 54.576 47.0079 50.288C47.0079 45.936 48.6719 42.096 51.9999 38.768C55.3279 35.376 60.2879 33.328 66.8799 32.624V21.2ZM71.2959 96.464C74.3039 95.952 76.8319 94.672 78.8799 92.624C80.9279 90.576 81.9519 87.92 81.9519 84.656C81.9519 81.328 81.0239 78.736 79.1679 76.88C77.3759 75.024 74.7519 73.328 71.2959 71.792V96.464ZM66.8799 35.024C63.6159 35.536 61.0559 36.944 59.1999 39.248C57.3439 41.552 56.4159 44.272 56.4159 47.408C56.4159 50.544 57.3119 53.008 59.1039 54.8C60.9599 56.592 63.5519 58.192 66.8799 59.6V35.024Z" fill="black"/>
</svg>
